<svg xmlns="http://www.w3.org/2000/svg" viewBox="0 0 256 256" fill="#0d0e1b">
  <path d="M128,24A104,104,0,0,0,24,128a103.89,103.89,0,0,0,32.3,75.54L152.88,107.88a12,12,0,0,1,16.94-16.94L203.46,192.3A103.89,103.89,0,0,0,232,128,104,104,0,0,0,128,24Zm76.24,180.22-51.58-51.58a12,12,0,0,1,0-16.94,11.9,11.9,0,0,1,16.94,0l51.58,51.58A103.73,103.73,0,0,1,128,232a103.89,103.89,0,0,1-75.54-32.3L15.88,66.12A103.73,103.73,0,0,1,128,24,103.89,103.89,0,0,1,232,128,103.73,103.73,0,0,1,204.24,204.22Z"/>
</svg>